<?xml version="1.0" encoding="utf-8"?>
<!-- Svg Vector Icons : http://www.onlinewebfonts.com/icon -->
<!DOCTYPE svg PUBLIC "-//W3C//DTD SVG 1.1//EN" "http://www.w3.org/Graphics/SVG/1.1/DTD/svg11.dtd">
<svg version="1.1" xmlns="http://www.w3.org/2000/svg" xmlns:xlink="http://www.w3.org/1999/xlink" x="0px" y="0px" viewBox="0 0 256 256" enable-background="new 0 0 256 256" xml:space="preserve">
<metadata> Svg Vector Icons : http://www.onlinewebfonts.com/icon </metadata>
<g><g><path fill="#000000" d="M128,231.6c-5.5,0-10.7-1.7-15.2-4.9C38.9,174,12.9,143.6,10,106.4l0-0.3V92.9l0-0.3c3.4-43,32.1-65.1,57.3-67.6c3.6-0.4,7.2-0.6,10.7-0.6c24.5,0,38.4,9.7,49.8,21.9c11.5-12.2,25.4-21.9,49.8-21.9c3.5,0,7.2,0.2,10.8,0.6c25.2,2.5,53.9,24.6,57.3,67.5l0,0.3v13.1l0,0.3c-2.9,37.3-28.8,67.7-102.8,120.4C138.7,229.9,133.5,231.6,128,231.6L128,231.6z M28.9,105.3c2.5,30.5,26.6,57.3,94.9,106.1c1.2,0.9,2.7,1.3,4.2,1.3c1.5,0,3-0.5,4.2-1.3c68.3-48.8,92.4-75.6,94.9-106.1V93.6c-2.7-31.8-22.7-48.1-40.3-49.8c-3-0.3-6-0.4-8.9-0.4c-21.4,0-30.8,9.2-42.6,23.3l-7.2,8.6l-7.2-8.7c-11.8-14.1-21.1-23.3-42.6-23.3c-2.9,0-5.9,0.1-8.9,0.4c-17.6,1.7-37.7,18-40.3,49.8L28.9,105.3L28.9,105.3z"/></g></g>
</svg>